<svg width="2595" height="825" xmlns="http://www.w3.org/2000/svg" xmlns:xlink="http://www.w3.org/1999/xlink" xml:space="preserve" overflow="hidden"><defs><clipPath id="clip0"><rect x="902" y="660" width="2595" height="825"/></clipPath></defs><g clip-path="url(#clip0)" transform="translate(-902 -660)"><path d="M0 0 60.203 456.537" stroke="#4472C4" stroke-width="6.875" stroke-linecap="butt" stroke-linejoin="miter" stroke-miterlimit="8" stroke-opacity="1" fill="none" fill-rule="evenodd" transform="matrix(-1 0 0 1 3399.7 711.5)"/><path d="M1456.5 1025C1456.5 1008.16 1470.16 994.5 1487 994.5L1808 994.5C1824.84 994.5 1838.5 1008.16 1838.5 1025L1838.5 1147C1838.5 1163.84 1824.84 1177.5 1808 1177.5L1487 1177.5C1470.16 1177.5 1456.5 1163.84 1456.5 1147Z" stroke="#2F528F" stroke-width="4.58333" stroke-linecap="butt" stroke-linejoin="miter" stroke-miterlimit="8" stroke-opacity="1" fill="#FFFFFF" fill-rule="evenodd" fill-opacity="1"/><text fill="#44546A" fill-opacity="1" font-family="Times New Roman,Times New Roman_MSFontService,sans-serif" font-style="italic" font-variant="normal" font-weight="700" font-stretch="normal" font-size="92" text-anchor="start" direction="ltr" writing-mode="lr-tb" unicode-bidi="normal" text-decoration="none" transform="matrix(1 0 0 1 1499.11 1120)">Expan</text><text fill="#44546A" fill-opacity="1" font-family="Times New Roman,Times New Roman_MSFontService,sans-serif" font-style="italic" font-variant="normal" font-weight="700" font-stretch="normal" font-size="92" text-anchor="start" direction="ltr" writing-mode="lr-tb" unicode-bidi="normal" text-decoration="none" transform="matrix(1 0 0 1 1748.91 1120)">d</text><path d="M2558.5 1025C2558.5 1008.16 2572.16 994.5 2589 994.5L2898 994.5C2914.84 994.5 2928.5 1008.16 2928.5 1025L2928.5 1147C2928.5 1163.84 2914.84 1177.5 2898 1177.5L2589 1177.5C2572.16 1177.5 2558.5 1163.84 2558.5 1147Z" stroke="#2F528F" stroke-width="4.58333" stroke-linecap="butt" stroke-linejoin="miter" stroke-miterlimit="8" stroke-opacity="1" fill="#FFFFFF" fill-rule="evenodd" fill-opacity="1"/><text fill="#70AD47" fill-opacity="1" font-family="Times New Roman,Times New Roman_MSFontService,sans-serif" font-style="italic" font-variant="normal" font-weight="700" font-stretch="normal" font-size="92" text-anchor="start" direction="ltr" writing-mode="lr-tb" unicode-bidi="normal" text-decoration="none" transform="matrix(1 0 0 1 2613.55 1120)">Shrink</text><path d="M1327.1 1077.13 1422.05 1078.49 1421.85 1092.24 1326.9 1090.87ZM1415.37 1064.64 1456.32 1085.86 1414.78 1105.89Z" fill="#000000" fill-rule="nonzero" fill-opacity="1"/><path d="M907.5 947.5C907.5 922.095 928.319 901.5 954 901.5 979.681 901.5 1000.5 922.095 1000.5 947.5 1000.5 972.905 979.681 993.5 954 993.5 928.319 993.5 907.5 972.905 907.5 947.5Z" stroke="#2F528F" stroke-width="4.58333" stroke-linecap="butt" stroke-linejoin="miter" stroke-miterlimit="8" stroke-opacity="1" fill="#E7E6E6" fill-rule="evenodd" fill-opacity="1"/><path d="M907.5 1084.5C907.5 1059.09 928.319 1038.5 954 1038.5 979.681 1038.5 1000.5 1059.09 1000.5 1084.5 1000.5 1109.91 979.681 1130.5 954 1130.5 928.319 1130.5 907.5 1109.91 907.5 1084.5Z" stroke="#2F528F" stroke-width="4.58333" stroke-linecap="butt" stroke-linejoin="miter" stroke-miterlimit="8" stroke-opacity="1" fill="#E7E6E6" fill-rule="evenodd" fill-opacity="1"/><path d="M907.5 1221.5C907.5 1196.09 928.319 1175.5 954 1175.5 979.681 1175.5 1000.5 1196.09 1000.5 1221.5 1000.5 1246.91 979.681 1267.5 954 1267.5 928.319 1267.5 907.5 1246.91 907.5 1221.5Z" stroke="#2F528F" stroke-width="4.58333" stroke-linecap="butt" stroke-linejoin="miter" stroke-miterlimit="8" stroke-opacity="1" fill="#E7E6E6" fill-rule="evenodd" fill-opacity="1"/><path d="M1055.5 993C1055.5 967.871 1076.54 947.5 1102.5 947.5 1128.46 947.5 1149.5 967.871 1149.5 993 1149.5 1018.13 1128.46 1038.5 1102.5 1038.5 1076.54 1038.5 1055.5 1018.13 1055.5 993Z" stroke="#2F528F" stroke-width="4.58333" stroke-linecap="butt" stroke-linejoin="miter" stroke-miterlimit="8" stroke-opacity="1" fill="#E7E6E6" fill-rule="evenodd" fill-opacity="1"/><path d="M1055.5 1149C1055.5 1123.87 1076.54 1103.5 1102.5 1103.5 1128.46 1103.5 1149.5 1123.87 1149.5 1149 1149.5 1174.13 1128.46 1194.5 1102.5 1194.5 1076.54 1194.5 1055.5 1174.13 1055.5 1149Z" stroke="#2F528F" stroke-width="4.58333" stroke-linecap="butt" stroke-linejoin="miter" stroke-miterlimit="8" stroke-opacity="1" fill="#E7E6E6" fill-rule="evenodd" fill-opacity="1"/><path d="M1000.5 947.5 1055.5 993.209" stroke="#4472C4" stroke-width="6.875" stroke-linecap="butt" stroke-linejoin="miter" stroke-miterlimit="8" stroke-opacity="1" fill="none" fill-rule="evenodd"/><path d="M1000.5 947.5 1055.5 1148.92" stroke="#4472C4" stroke-width="6.875" stroke-linecap="butt" stroke-linejoin="miter" stroke-miterlimit="8" stroke-opacity="1" fill="none" fill-rule="evenodd"/><path d="M1204.5 1084.5C1204.5 1059.09 1225.54 1038.5 1251.5 1038.5 1277.46 1038.5 1298.5 1059.09 1298.5 1084.5 1298.5 1109.91 1277.46 1130.5 1251.5 1130.5 1225.54 1130.5 1204.5 1109.91 1204.5 1084.5Z" stroke="#2F528F" stroke-width="4.58333" stroke-linecap="butt" stroke-linejoin="miter" stroke-miterlimit="8" stroke-opacity="1" fill="#E7E6E6" fill-rule="evenodd" fill-opacity="1"/><path d="M1204.5 1221.5C1204.5 1196.09 1225.54 1175.5 1251.5 1175.5 1277.46 1175.5 1298.5 1196.09 1298.5 1221.5 1298.5 1246.91 1277.46 1267.5 1251.5 1267.5 1225.54 1267.5 1204.5 1246.91 1204.5 1221.5Z" stroke="#2F528F" stroke-width="4.58333" stroke-linecap="butt" stroke-linejoin="miter" stroke-miterlimit="8" stroke-opacity="1" fill="#E7E6E6" fill-rule="evenodd" fill-opacity="1"/><path d="M1204.5 947.5C1204.5 922.095 1225.54 901.5 1251.5 901.5 1277.46 901.5 1298.5 922.095 1298.5 947.5 1298.5 972.905 1277.46 993.5 1251.5 993.5 1225.54 993.5 1204.5 972.905 1204.5 947.5Z" stroke="#2F528F" stroke-width="4.58333" stroke-linecap="butt" stroke-linejoin="miter" stroke-miterlimit="8" stroke-opacity="1" fill="#E7E6E6" fill-rule="evenodd" fill-opacity="1"/><path d="M0 0 55 91.4187" stroke="#4472C4" stroke-width="6.875" stroke-linecap="butt" stroke-linejoin="miter" stroke-miterlimit="8" stroke-opacity="1" fill="none" fill-rule="evenodd" transform="matrix(1 0 0 -1 1000.5 1084.92)"/><path d="M1000.5 1084.5 1055.5 1148.79" stroke="#4472C4" stroke-width="6.875" stroke-linecap="butt" stroke-linejoin="miter" stroke-miterlimit="8" stroke-opacity="1" fill="none" fill-rule="evenodd"/><path d="M0 0 55 228.547" stroke="#4472C4" stroke-width="6.875" stroke-linecap="butt" stroke-linejoin="miter" stroke-miterlimit="8" stroke-opacity="1" fill="none" fill-rule="evenodd" transform="matrix(1 0 0 -1 1000.5 1222.05)"/><path d="M0 0 55 72.8378" stroke="#4472C4" stroke-width="6.875" stroke-linecap="butt" stroke-linejoin="miter" stroke-miterlimit="8" stroke-opacity="1" fill="none" fill-rule="evenodd" transform="matrix(1 0 0 -1 1000.5 1221.34)"/><path d="M0 0 55 45.7095" stroke="#4472C4" stroke-width="6.875" stroke-linecap="butt" stroke-linejoin="miter" stroke-miterlimit="8" stroke-opacity="1" fill="none" fill-rule="evenodd" transform="matrix(-1 0 0 1 1204.5 947.5)"/><path d="M1204.5 1084.92 1149.5 993.5" stroke="#4472C4" stroke-width="6.875" stroke-linecap="butt" stroke-linejoin="miter" stroke-miterlimit="8" stroke-opacity="1" fill="none" fill-rule="evenodd"/><path d="M1204.5 1222.05 1149.5 993.5" stroke="#4472C4" stroke-width="6.875" stroke-linecap="butt" stroke-linejoin="miter" stroke-miterlimit="8" stroke-opacity="1" fill="none" fill-rule="evenodd"/><path d="M0 0 55 201.419" stroke="#4472C4" stroke-width="6.875" stroke-linecap="butt" stroke-linejoin="miter" stroke-miterlimit="8" stroke-opacity="1" fill="none" fill-rule="evenodd" transform="matrix(-1 0 0 1 1204.5 947.5)"/><path d="M0 0 55 64.2908" stroke="#4472C4" stroke-width="6.875" stroke-linecap="butt" stroke-linejoin="miter" stroke-miterlimit="8" stroke-opacity="1" fill="none" fill-rule="evenodd" transform="matrix(-1 0 0 1 1204.5 1084.5)"/><path d="M1204.5 1221.34 1149.5 1148.5" stroke="#4472C4" stroke-width="6.875" stroke-linecap="butt" stroke-linejoin="miter" stroke-miterlimit="8" stroke-opacity="1" fill="none" fill-rule="evenodd"/><path d="M2018.5 748C2018.5 722.871 2039.54 702.5 2065.5 702.5 2091.46 702.5 2112.5 722.871 2112.5 748 2112.5 773.129 2091.46 793.5 2065.5 793.5 2039.54 793.5 2018.5 773.129 2018.5 748Z" stroke="#2F528F" stroke-width="4.58333" stroke-linecap="butt" stroke-linejoin="miter" stroke-miterlimit="8" stroke-opacity="1" fill="#E7E6E6" fill-rule="evenodd" fill-opacity="1"/><path d="M2018.5 885.5C2018.5 860.095 2039.54 839.5 2065.5 839.5 2091.46 839.5 2112.5 860.095 2112.5 885.5 2112.5 910.905 2091.46 931.5 2065.5 931.5 2039.54 931.5 2018.5 910.905 2018.5 885.5Z" stroke="#2F528F" stroke-width="4.58333" stroke-linecap="butt" stroke-linejoin="miter" stroke-miterlimit="8" stroke-opacity="1" fill="#E7E6E6" fill-rule="evenodd" fill-opacity="1"/><path d="M2018.5 1022.5C2018.5 997.095 2039.54 976.5 2065.5 976.5 2091.46 976.5 2112.5 997.095 2112.5 1022.5 2112.5 1047.91 2091.46 1068.5 2065.5 1068.5 2039.54 1068.5 2018.5 1047.91 2018.5 1022.5Z" stroke="#2F528F" stroke-width="4.58333" stroke-linecap="butt" stroke-linejoin="miter" stroke-miterlimit="8" stroke-opacity="1" fill="#E7E6E6" fill-rule="evenodd" fill-opacity="1"/><path d="M2167.5 794C2167.5 768.871 2188.32 748.5 2214 748.5 2239.68 748.5 2260.5 768.871 2260.5 794 2260.5 819.129 2239.68 839.5 2214 839.5 2188.32 839.5 2167.5 819.129 2167.5 794Z" stroke="#2F528F" stroke-width="4.58333" stroke-linecap="butt" stroke-linejoin="miter" stroke-miterlimit="8" stroke-opacity="1" fill="#E7E6E6" fill-rule="evenodd" fill-opacity="1"/><path d="M2167.5 949.5C2167.5 924.095 2188.32 903.5 2214 903.5 2239.68 903.5 2260.5 924.095 2260.5 949.5 2260.5 974.905 2239.68 995.5 2214 995.5 2188.32 995.5 2167.5 974.905 2167.5 949.5Z" stroke="#2F528F" stroke-width="4.58333" stroke-linecap="butt" stroke-linejoin="miter" stroke-miterlimit="8" stroke-opacity="1" fill="#E7E6E6" fill-rule="evenodd" fill-opacity="1"/><path d="M2112.5 748.5 2167.5 794.209" stroke="#4472C4" stroke-width="6.875" stroke-linecap="butt" stroke-linejoin="miter" stroke-miterlimit="8" stroke-opacity="1" fill="none" fill-rule="evenodd"/><path d="M2112.5 748.5 2167.5 949.919" stroke="#4472C4" stroke-width="6.875" stroke-linecap="butt" stroke-linejoin="miter" stroke-miterlimit="8" stroke-opacity="1" fill="none" fill-rule="evenodd"/><path d="M2315.5 885.5C2315.5 860.095 2336.54 839.5 2362.5 839.5 2388.46 839.5 2409.5 860.095 2409.5 885.5 2409.5 910.905 2388.46 931.5 2362.5 931.5 2336.54 931.5 2315.5 910.905 2315.5 885.5Z" stroke="#2F528F" stroke-width="4.58333" stroke-linecap="butt" stroke-linejoin="miter" stroke-miterlimit="8" stroke-opacity="1" fill="#E7E6E6" fill-rule="evenodd" fill-opacity="1"/><path d="M2315.5 1022.5C2315.5 997.095 2336.54 976.5 2362.5 976.5 2388.46 976.5 2409.5 997.095 2409.5 1022.5 2409.5 1047.91 2388.46 1068.5 2362.5 1068.5 2336.54 1068.5 2315.5 1047.91 2315.5 1022.5Z" stroke="#2F528F" stroke-width="4.58333" stroke-linecap="butt" stroke-linejoin="miter" stroke-miterlimit="8" stroke-opacity="1" fill="#E7E6E6" fill-rule="evenodd" fill-opacity="1"/><path d="M2315.5 748C2315.5 722.871 2336.54 702.5 2362.5 702.5 2388.46 702.5 2409.5 722.871 2409.5 748 2409.5 773.129 2388.46 793.5 2362.5 793.5 2336.54 793.5 2315.5 773.129 2315.5 748Z" stroke="#2F528F" stroke-width="4.58333" stroke-linecap="butt" stroke-linejoin="miter" stroke-miterlimit="8" stroke-opacity="1" fill="#E7E6E6" fill-rule="evenodd" fill-opacity="1"/><path d="M0 0 55 91.4187" stroke="#4472C4" stroke-width="6.875" stroke-linecap="butt" stroke-linejoin="miter" stroke-miterlimit="8" stroke-opacity="1" fill="none" fill-rule="evenodd" transform="matrix(1 0 0 -1 2112.5 884.919)"/><path d="M2112.5 885.5 2167.5 949.79" stroke="#4472C4" stroke-width="6.875" stroke-linecap="butt" stroke-linejoin="miter" stroke-miterlimit="8" stroke-opacity="1" fill="none" fill-rule="evenodd"/><path d="M0 0 55 228.547" stroke="#4472C4" stroke-width="6.875" stroke-linecap="butt" stroke-linejoin="miter" stroke-miterlimit="8" stroke-opacity="1" fill="none" fill-rule="evenodd" transform="matrix(1 0 0 -1 2112.5 1022.05)"/><path d="M0 0 55 72.8378" stroke="#4472C4" stroke-width="6.875" stroke-linecap="butt" stroke-linejoin="miter" stroke-miterlimit="8" stroke-opacity="1" fill="none" fill-rule="evenodd" transform="matrix(1 0 0 -1 2112.5 1022.34)"/><path d="M0 0 55 45.7095" stroke="#4472C4" stroke-width="6.875" stroke-linecap="butt" stroke-linejoin="miter" stroke-miterlimit="8" stroke-opacity="1" fill="none" fill-rule="evenodd" transform="matrix(-1 0 0 1 2315.5 748.5)"/><path d="M2315.5 884.918 2260.5 793.5" stroke="#4472C4" stroke-width="6.875" stroke-linecap="butt" stroke-linejoin="miter" stroke-miterlimit="8" stroke-opacity="1" fill="none" fill-rule="evenodd"/><path d="M2315.5 1022.05 2260.5 793.5" stroke="#4472C4" stroke-width="6.875" stroke-linecap="butt" stroke-linejoin="miter" stroke-miterlimit="8" stroke-opacity="1" fill="none" fill-rule="evenodd"/><path d="M0 0 55 201.419" stroke="#4472C4" stroke-width="6.875" stroke-linecap="butt" stroke-linejoin="miter" stroke-miterlimit="8" stroke-opacity="1" fill="none" fill-rule="evenodd" transform="matrix(-1 0 0 1 2315.5 748.5)"/><path d="M0 0 55 64.2908" stroke="#4472C4" stroke-width="6.875" stroke-linecap="butt" stroke-linejoin="miter" stroke-miterlimit="8" stroke-opacity="1" fill="none" fill-rule="evenodd" transform="matrix(-1 0 0 1 2315.5 885.5)"/><path d="M2315.5 1022.34 2260.5 949.5" stroke="#4472C4" stroke-width="6.875" stroke-linecap="butt" stroke-linejoin="miter" stroke-miterlimit="8" stroke-opacity="1" fill="none" fill-rule="evenodd"/><path d="M2013.5 1159C2013.5 1133.87 2034.32 1113.5 2060 1113.5 2085.68 1113.5 2106.5 1133.87 2106.5 1159 2106.5 1184.13 2085.68 1204.5 2060 1204.5 2034.32 1204.5 2013.5 1184.13 2013.5 1159Z" stroke="#2F528F" stroke-width="4.58333" stroke-linecap="butt" stroke-linejoin="miter" stroke-miterlimit="8" stroke-opacity="1" fill="#FFFFFF" fill-rule="evenodd" fill-opacity="1"/><path d="M2013.5 1296C2013.5 1270.87 2034.32 1250.5 2060 1250.5 2085.68 1250.5 2106.5 1270.87 2106.5 1296 2106.5 1321.13 2085.68 1341.5 2060 1341.5 2034.32 1341.5 2013.5 1321.13 2013.5 1296Z" stroke="#2F528F" stroke-width="4.58333" stroke-linecap="butt" stroke-linejoin="miter" stroke-miterlimit="8" stroke-opacity="1" fill="#FFFFFF" fill-rule="evenodd" fill-opacity="1"/><path d="M2013.5 1433C2013.5 1407.87 2034.32 1387.5 2060 1387.5 2085.68 1387.5 2106.5 1407.87 2106.5 1433 2106.5 1458.13 2085.68 1478.5 2060 1478.5 2034.32 1478.5 2013.5 1458.13 2013.5 1433Z" stroke="#2F528F" stroke-width="4.58333" stroke-linecap="butt" stroke-linejoin="miter" stroke-miterlimit="8" stroke-opacity="1" fill="#FFFFFF" fill-rule="evenodd" fill-opacity="1"/><path d="M2161.5 1205C2161.5 1179.87 2182.54 1159.5 2208.5 1159.5 2234.46 1159.5 2255.5 1179.87 2255.5 1205 2255.5 1230.13 2234.46 1250.5 2208.5 1250.5 2182.54 1250.5 2161.5 1230.13 2161.5 1205Z" stroke="#2F528F" stroke-width="4.58333" stroke-linecap="butt" stroke-linejoin="miter" stroke-miterlimit="8" stroke-opacity="1" fill="#FFFFFF" fill-rule="evenodd" fill-opacity="1"/><path d="M2161.5 1360.5C2161.5 1335.09 2182.54 1314.5 2208.5 1314.5 2234.46 1314.5 2255.5 1335.09 2255.5 1360.5 2255.5 1385.91 2234.46 1406.5 2208.5 1406.5 2182.54 1406.5 2161.5 1385.91 2161.5 1360.5Z" stroke="#2F528F" stroke-width="4.58333" stroke-linecap="butt" stroke-linejoin="miter" stroke-miterlimit="8" stroke-opacity="1" fill="#FFFFFF" fill-rule="evenodd" fill-opacity="1"/><path d="M2106.5 1159.5 2161.5 1205.21" stroke="#4472C4" stroke-width="6.875" stroke-linecap="butt" stroke-linejoin="miter" stroke-miterlimit="8" stroke-opacity="1" fill="none" fill-rule="evenodd"/><path d="M2106.5 1159.5 2161.5 1360.92" stroke="#4472C4" stroke-width="6.875" stroke-linecap="butt" stroke-linejoin="miter" stroke-miterlimit="8" stroke-opacity="1" fill="none" fill-rule="evenodd"/><path d="M2310.5 1296C2310.5 1270.87 2331.54 1250.5 2357.5 1250.5 2383.46 1250.5 2404.5 1270.87 2404.5 1296 2404.5 1321.13 2383.46 1341.5 2357.5 1341.5 2331.54 1341.5 2310.5 1321.13 2310.5 1296Z" stroke="#2F528F" stroke-width="4.58333" stroke-linecap="butt" stroke-linejoin="miter" stroke-miterlimit="8" stroke-opacity="1" fill="#FFFFFF" fill-rule="evenodd" fill-opacity="1"/><path d="M2310.5 1433C2310.5 1407.87 2331.54 1387.5 2357.5 1387.5 2383.46 1387.5 2404.5 1407.87 2404.5 1433 2404.5 1458.13 2383.46 1478.5 2357.5 1478.5 2331.54 1478.5 2310.5 1458.13 2310.5 1433Z" stroke="#2F528F" stroke-width="4.58333" stroke-linecap="butt" stroke-linejoin="miter" stroke-miterlimit="8" stroke-opacity="1" fill="#FFFFFF" fill-rule="evenodd" fill-opacity="1"/><path d="M2310.5 1159C2310.5 1133.87 2331.54 1113.5 2357.5 1113.5 2383.46 1113.5 2404.5 1133.87 2404.5 1159 2404.5 1184.13 2383.46 1204.5 2357.5 1204.5 2331.54 1204.5 2310.5 1184.13 2310.5 1159Z" stroke="#2F528F" stroke-width="4.58333" stroke-linecap="butt" stroke-linejoin="miter" stroke-miterlimit="8" stroke-opacity="1" fill="#FFFFFF" fill-rule="evenodd" fill-opacity="1"/><path d="M0 0 55 91.4187" stroke="#4472C4" stroke-width="6.875" stroke-linecap="butt" stroke-linejoin="miter" stroke-miterlimit="8" stroke-opacity="1" fill="none" fill-rule="evenodd" transform="matrix(1 0 0 -1 2106.5 1295.92)"/><path d="M2106.5 1296.5 2161.5 1360.79" stroke="#4472C4" stroke-width="6.875" stroke-linecap="butt" stroke-linejoin="miter" stroke-miterlimit="8" stroke-opacity="1" fill="none" fill-rule="evenodd"/><path d="M0 0 55 228.547" stroke="#4472C4" stroke-width="6.875" stroke-linecap="butt" stroke-linejoin="miter" stroke-miterlimit="8" stroke-opacity="1" fill="none" fill-rule="evenodd" transform="matrix(1 0 0 -1 2106.5 1433.05)"/><path d="M0 0 55 72.8378" stroke="#4472C4" stroke-width="6.875" stroke-linecap="butt" stroke-linejoin="miter" stroke-miterlimit="8" stroke-opacity="1" fill="none" fill-rule="evenodd" transform="matrix(1 0 0 -1 2106.5 1433.34)"/><path d="M0 0 55 45.7095" stroke="#4472C4" stroke-width="6.875" stroke-linecap="butt" stroke-linejoin="miter" stroke-miterlimit="8" stroke-opacity="1" fill="none" fill-rule="evenodd" transform="matrix(-1 0 0 1 2310.5 1159.5)"/><path d="M2310.5 1295.92 2255.5 1204.5" stroke="#4472C4" stroke-width="6.875" stroke-linecap="butt" stroke-linejoin="miter" stroke-miterlimit="8" stroke-opacity="1" fill="none" fill-rule="evenodd"/><path d="M2310.5 1433.05 2255.5 1204.5" stroke="#4472C4" stroke-width="6.875" stroke-linecap="butt" stroke-linejoin="miter" stroke-miterlimit="8" stroke-opacity="1" fill="none" fill-rule="evenodd"/><path d="M0 0 55 201.419" stroke="#4472C4" stroke-width="6.875" stroke-linecap="butt" stroke-linejoin="miter" stroke-miterlimit="8" stroke-opacity="1" fill="none" fill-rule="evenodd" transform="matrix(-1 0 0 1 2310.5 1159.5)"/><path d="M0 0 55 64.2908" stroke="#4472C4" stroke-width="6.875" stroke-linecap="butt" stroke-linejoin="miter" stroke-miterlimit="8" stroke-opacity="1" fill="none" fill-rule="evenodd" transform="matrix(-1 0 0 1 2310.5 1296.5)"/><path d="M2310.5 1433.34 2255.5 1360.5" stroke="#4472C4" stroke-width="6.875" stroke-linecap="butt" stroke-linejoin="miter" stroke-miterlimit="8" stroke-opacity="1" fill="none" fill-rule="evenodd"/><path d="M2112.5 748.5 2162.3 1205.04" stroke="#4472C4" stroke-width="6.875" stroke-linecap="butt" stroke-linejoin="miter" stroke-miterlimit="8" stroke-opacity="1" fill="none" fill-rule="evenodd"/><path d="M2112.5 748.5 2162.3 1360.75" stroke="#4472C4" stroke-width="6.875" stroke-linecap="butt" stroke-linejoin="miter" stroke-miterlimit="8" stroke-opacity="1" fill="none" fill-rule="evenodd"/><path d="M2112.5 885.5 2162.3 1204.91" stroke="#4472C4" stroke-width="6.875" stroke-linecap="butt" stroke-linejoin="miter" stroke-miterlimit="8" stroke-opacity="1" fill="none" fill-rule="evenodd"/><path d="M2112.5 885.5 2162.3 1360.62" stroke="#4472C4" stroke-width="6.875" stroke-linecap="butt" stroke-linejoin="miter" stroke-miterlimit="8" stroke-opacity="1" fill="none" fill-rule="evenodd"/><path d="M2112.5 1022.5 2162.3 1204.78" stroke="#4472C4" stroke-width="6.875" stroke-linecap="butt" stroke-linejoin="miter" stroke-miterlimit="8" stroke-opacity="1" fill="none" fill-rule="evenodd"/><path d="M2112.5 1022.5 2162.3 1360.49" stroke="#4472C4" stroke-width="6.875" stroke-linecap="butt" stroke-linejoin="miter" stroke-miterlimit="8" stroke-opacity="1" fill="none" fill-rule="evenodd"/><path d="M0 0 60.203 365.118" stroke="#4472C4" stroke-width="6.875" stroke-linecap="butt" stroke-linejoin="miter" stroke-miterlimit="8" stroke-opacity="1" fill="none" fill-rule="evenodd" transform="matrix(1 0 0 -1 2106.5 1158.62)"/><path d="M0 0 60.203 209.409" stroke="#4472C4" stroke-width="6.875" stroke-linecap="butt" stroke-linejoin="miter" stroke-miterlimit="8" stroke-opacity="1" fill="none" fill-rule="evenodd" transform="matrix(1 0 0 -1 2106.5 1158.91)"/><path d="M0 0 60.203 502.246" stroke="#4472C4" stroke-width="6.875" stroke-linecap="butt" stroke-linejoin="miter" stroke-miterlimit="8" stroke-opacity="1" fill="none" fill-rule="evenodd" transform="matrix(1 0 0 -1 2106.5 1295.75)"/><path d="M0 0 60.203 346.537" stroke="#4472C4" stroke-width="6.875" stroke-linecap="butt" stroke-linejoin="miter" stroke-miterlimit="8" stroke-opacity="1" fill="none" fill-rule="evenodd" transform="matrix(1 0 0 -1 2106.5 1296.04)"/><path d="M0 0 60.203 639.374" stroke="#4472C4" stroke-width="6.875" stroke-linecap="butt" stroke-linejoin="miter" stroke-miterlimit="8" stroke-opacity="1" fill="none" fill-rule="evenodd" transform="matrix(1 0 0 -1 2106.5 1432.87)"/><path d="M0 0 60.203 483.665" stroke="#4472C4" stroke-width="6.875" stroke-linecap="butt" stroke-linejoin="miter" stroke-miterlimit="8" stroke-opacity="1" fill="none" fill-rule="evenodd" transform="matrix(1 0 0 -1 2106.5 1433.17)"/><path d="M0 0 60.203 337.99" stroke="#4472C4" stroke-width="6.875" stroke-linecap="butt" stroke-linejoin="miter" stroke-miterlimit="8" stroke-opacity="1" fill="none" fill-rule="evenodd" transform="matrix(-1 0 0 1 2315.7 1022.5)"/><path d="M0 0 60.203 475.118" stroke="#4472C4" stroke-width="6.875" stroke-linecap="butt" stroke-linejoin="miter" stroke-miterlimit="8" stroke-opacity="1" fill="none" fill-rule="evenodd" transform="matrix(-1 0 0 1 2315.7 885.5)"/><path d="M0 0 60.203 612.246" stroke="#4472C4" stroke-width="6.875" stroke-linecap="butt" stroke-linejoin="miter" stroke-miterlimit="8" stroke-opacity="1" fill="none" fill-rule="evenodd" transform="matrix(-1 0 0 1 2315.7 748.5)"/><path d="M0 0 60.203 182.281" stroke="#4472C4" stroke-width="6.875" stroke-linecap="butt" stroke-linejoin="miter" stroke-miterlimit="8" stroke-opacity="1" fill="none" fill-rule="evenodd" transform="matrix(-1 0 0 1 2315.7 1022.5)"/><path d="M0 0 60.203 319.409" stroke="#4472C4" stroke-width="6.875" stroke-linecap="butt" stroke-linejoin="miter" stroke-miterlimit="8" stroke-opacity="1" fill="none" fill-rule="evenodd" transform="matrix(-1 0 0 1 2315.7 885.5)"/><path d="M0 0 60.203 456.537" stroke="#4472C4" stroke-width="6.875" stroke-linecap="butt" stroke-linejoin="miter" stroke-miterlimit="8" stroke-opacity="1" fill="none" fill-rule="evenodd" transform="matrix(-1 0 0 1 2315.7 748.5)"/><path d="M2310.3 1158.91 2260.5 949.5" stroke="#4472C4" stroke-width="6.875" stroke-linecap="butt" stroke-linejoin="miter" stroke-miterlimit="8" stroke-opacity="1" fill="none" fill-rule="evenodd"/><path d="M2310.3 1296.04 2260.5 949.5" stroke="#4472C4" stroke-width="6.875" stroke-linecap="butt" stroke-linejoin="miter" stroke-miterlimit="8" stroke-opacity="1" fill="none" fill-rule="evenodd"/><path d="M2310.3 1433.16 2260.5 949.5" stroke="#4472C4" stroke-width="6.875" stroke-linecap="butt" stroke-linejoin="miter" stroke-miterlimit="8" stroke-opacity="1" fill="none" fill-rule="evenodd"/><path d="M2310.3 1158.62 2260.5 793.5" stroke="#4472C4" stroke-width="6.875" stroke-linecap="butt" stroke-linejoin="miter" stroke-miterlimit="8" stroke-opacity="1" fill="none" fill-rule="evenodd"/><path d="M2310.3 1295.75 2260.5 793.5" stroke="#4472C4" stroke-width="6.875" stroke-linecap="butt" stroke-linejoin="miter" stroke-miterlimit="8" stroke-opacity="1" fill="none" fill-rule="evenodd"/><path d="M2310.3 1432.87 2260.5 793.5" stroke="#4472C4" stroke-width="6.875" stroke-linecap="butt" stroke-linejoin="miter" stroke-miterlimit="8" stroke-opacity="1" fill="none" fill-rule="evenodd"/><path d="M3102.5 848C3102.5 822.871 3123.54 802.5 3149.5 802.5 3175.46 802.5 3196.5 822.871 3196.5 848 3196.5 873.129 3175.46 893.5 3149.5 893.5 3123.54 893.5 3102.5 873.129 3102.5 848Z" stroke="#2F528F" stroke-width="4.58333" stroke-linecap="butt" stroke-linejoin="miter" stroke-miterlimit="8" stroke-opacity="1" fill="#E7E6E6" fill-rule="evenodd" fill-opacity="1"/><path d="M3102.5 985.5C3102.5 960.095 3123.54 939.5 3149.5 939.5 3175.46 939.5 3196.5 960.095 3196.5 985.5 3196.5 1010.91 3175.46 1031.5 3149.5 1031.5 3123.54 1031.5 3102.5 1010.91 3102.5 985.5Z" stroke="#2F528F" stroke-width="4.58333" stroke-linecap="butt" stroke-linejoin="miter" stroke-miterlimit="8" stroke-opacity="1" fill="#E7E6E6" fill-rule="evenodd" fill-opacity="1"/><path d="M3251.5 912.5C3251.5 887.095 3272.54 866.5 3298.5 866.5 3324.46 866.5 3345.5 887.095 3345.5 912.5 3345.5 937.905 3324.46 958.5 3298.5 958.5 3272.54 958.5 3251.5 937.905 3251.5 912.5Z" stroke="#2F528F" stroke-width="4.58333" stroke-linecap="butt" stroke-linejoin="miter" stroke-miterlimit="8" stroke-opacity="1" fill="#E7E6E6" fill-rule="evenodd" fill-opacity="1"/><path d="M3400.5 985.5C3400.5 960.095 3421.32 939.5 3447 939.5 3472.68 939.5 3493.5 960.095 3493.5 985.5 3493.5 1010.91 3472.68 1031.5 3447 1031.5 3421.32 1031.5 3400.5 1010.91 3400.5 985.5Z" stroke="#2F528F" stroke-width="4.58333" stroke-linecap="butt" stroke-linejoin="miter" stroke-miterlimit="8" stroke-opacity="1" fill="#E7E6E6" fill-rule="evenodd" fill-opacity="1"/><path d="M3400.5 711C3400.5 685.871 3421.32 665.5 3447 665.5 3472.68 665.5 3493.5 685.871 3493.5 711 3493.5 736.129 3472.68 756.5 3447 756.5 3421.32 756.5 3400.5 736.129 3400.5 711Z" stroke="#2F528F" stroke-width="4.58333" stroke-linecap="butt" stroke-linejoin="miter" stroke-miterlimit="8" stroke-opacity="1" fill="#E7E6E6" fill-rule="evenodd" fill-opacity="1"/><path d="M3196.5 848.5 3251.5 912.79" stroke="#4472C4" stroke-width="6.875" stroke-linecap="butt" stroke-linejoin="miter" stroke-miterlimit="8" stroke-opacity="1" fill="none" fill-rule="evenodd"/><path d="M0 0 55 72.8378" stroke="#4472C4" stroke-width="6.875" stroke-linecap="butt" stroke-linejoin="miter" stroke-miterlimit="8" stroke-opacity="1" fill="none" fill-rule="evenodd" transform="matrix(1 0 0 -1 3196.5 985.338)"/><path d="M0 0 55 201.419" stroke="#4472C4" stroke-width="6.875" stroke-linecap="butt" stroke-linejoin="miter" stroke-miterlimit="8" stroke-opacity="1" fill="none" fill-rule="evenodd" transform="matrix(-1 0 0 1 3400.5 711.5)"/><path d="M3400.5 985.338 3345.5 912.5" stroke="#4472C4" stroke-width="6.875" stroke-linecap="butt" stroke-linejoin="miter" stroke-miterlimit="8" stroke-opacity="1" fill="none" fill-rule="evenodd"/><path d="M3097.5 1259C3097.5 1233.87 3118.54 1213.5 3144.5 1213.5 3170.46 1213.5 3191.5 1233.87 3191.5 1259 3191.5 1284.13 3170.46 1304.5 3144.5 1304.5 3118.54 1304.5 3097.5 1284.13 3097.5 1259Z" stroke="#2F528F" stroke-width="4.58333" stroke-linecap="butt" stroke-linejoin="miter" stroke-miterlimit="8" stroke-opacity="1" fill="#FFFFFF" fill-rule="evenodd" fill-opacity="1"/><path d="M3097.5 1396C3097.5 1370.87 3118.54 1350.5 3144.5 1350.5 3170.46 1350.5 3191.5 1370.87 3191.5 1396 3191.5 1421.13 3170.46 1441.5 3144.5 1441.5 3118.54 1441.5 3097.5 1421.13 3097.5 1396Z" stroke="#2F528F" stroke-width="4.58333" stroke-linecap="butt" stroke-linejoin="miter" stroke-miterlimit="8" stroke-opacity="1" fill="#FFFFFF" fill-rule="evenodd" fill-opacity="1"/><path d="M3246.5 1167.5C3246.5 1142.09 3267.32 1121.5 3293 1121.5 3318.68 1121.5 3339.5 1142.09 3339.5 1167.5 3339.5 1192.91 3318.68 1213.5 3293 1213.5 3267.32 1213.5 3246.5 1192.91 3246.5 1167.5Z" stroke="#2F528F" stroke-width="4.58333" stroke-linecap="butt" stroke-linejoin="miter" stroke-miterlimit="8" stroke-opacity="1" fill="#FFFFFF" fill-rule="evenodd" fill-opacity="1"/><path d="M3246.5 1323C3246.5 1297.87 3267.32 1277.5 3293 1277.5 3318.68 1277.5 3339.5 1297.87 3339.5 1323 3339.5 1348.13 3318.68 1368.5 3293 1368.5 3267.32 1368.5 3246.5 1348.13 3246.5 1323Z" stroke="#2F528F" stroke-width="4.58333" stroke-linecap="butt" stroke-linejoin="miter" stroke-miterlimit="8" stroke-opacity="1" fill="#FFFFFF" fill-rule="evenodd" fill-opacity="1"/><path d="M3394.5 1259C3394.5 1233.87 3415.54 1213.5 3441.5 1213.5 3467.46 1213.5 3488.5 1233.87 3488.5 1259 3488.5 1284.13 3467.46 1304.5 3441.5 1304.5 3415.54 1304.5 3394.5 1284.13 3394.5 1259Z" stroke="#2F528F" stroke-width="4.58333" stroke-linecap="butt" stroke-linejoin="miter" stroke-miterlimit="8" stroke-opacity="1" fill="#FFFFFF" fill-rule="evenodd" fill-opacity="1"/><path d="M3394.5 1122C3394.5 1096.87 3415.54 1076.5 3441.5 1076.5 3467.46 1076.5 3488.5 1096.87 3488.5 1122 3488.5 1147.13 3467.46 1167.5 3441.5 1167.5 3415.54 1167.5 3394.5 1147.13 3394.5 1122Z" stroke="#2F528F" stroke-width="4.58333" stroke-linecap="butt" stroke-linejoin="miter" stroke-miterlimit="8" stroke-opacity="1" fill="#FFFFFF" fill-rule="evenodd" fill-opacity="1"/><path d="M0 0 55 91.4187" stroke="#4472C4" stroke-width="6.875" stroke-linecap="butt" stroke-linejoin="miter" stroke-miterlimit="8" stroke-opacity="1" fill="none" fill-rule="evenodd" transform="matrix(1 0 0 -1 3191.5 1258.92)"/><path d="M3191.5 1258.5 3246.5 1322.79" stroke="#4472C4" stroke-width="6.875" stroke-linecap="butt" stroke-linejoin="miter" stroke-miterlimit="8" stroke-opacity="1" fill="none" fill-rule="evenodd"/><path d="M0 0 55 228.547" stroke="#4472C4" stroke-width="6.875" stroke-linecap="butt" stroke-linejoin="miter" stroke-miterlimit="8" stroke-opacity="1" fill="none" fill-rule="evenodd" transform="matrix(1 0 0 -1 3191.5 1396.05)"/><path d="M0 0 55 72.8378" stroke="#4472C4" stroke-width="6.875" stroke-linecap="butt" stroke-linejoin="miter" stroke-miterlimit="8" stroke-opacity="1" fill="none" fill-rule="evenodd" transform="matrix(1 0 0 -1 3191.5 1396.34)"/><path d="M0 0 55 45.7095" stroke="#4472C4" stroke-width="6.875" stroke-linecap="butt" stroke-linejoin="miter" stroke-miterlimit="8" stroke-opacity="1" fill="none" fill-rule="evenodd" transform="matrix(-1 0 0 1 3394.5 1121.5)"/><path d="M3394.5 1258.92 3339.5 1167.5" stroke="#4472C4" stroke-width="6.875" stroke-linecap="butt" stroke-linejoin="miter" stroke-miterlimit="8" stroke-opacity="1" fill="none" fill-rule="evenodd"/><path d="M0 0 55 201.419" stroke="#4472C4" stroke-width="6.875" stroke-linecap="butt" stroke-linejoin="miter" stroke-miterlimit="8" stroke-opacity="1" fill="none" fill-rule="evenodd" transform="matrix(-1 0 0 1 3394.5 1121.5)"/><path d="M0 0 55 64.2908" stroke="#4472C4" stroke-width="6.875" stroke-linecap="butt" stroke-linejoin="miter" stroke-miterlimit="8" stroke-opacity="1" fill="none" fill-rule="evenodd" transform="matrix(-1 0 0 1 3394.5 1258.5)"/><path d="M3196.5 848.5 3246.3 1167.91" stroke="#4472C4" stroke-width="6.875" stroke-linecap="butt" stroke-linejoin="miter" stroke-miterlimit="8" stroke-opacity="1" fill="none" fill-rule="evenodd"/><path d="M3196.5 848.5 3246.3 1323.62" stroke="#4472C4" stroke-width="6.875" stroke-linecap="butt" stroke-linejoin="miter" stroke-miterlimit="8" stroke-opacity="1" fill="none" fill-rule="evenodd"/><path d="M3196.5 985.5 3246.3 1167.78" stroke="#4472C4" stroke-width="6.875" stroke-linecap="butt" stroke-linejoin="miter" stroke-miterlimit="8" stroke-opacity="1" fill="none" fill-rule="evenodd"/><path d="M3196.5 985.5 3246.3 1323.49" stroke="#4472C4" stroke-width="6.875" stroke-linecap="butt" stroke-linejoin="miter" stroke-miterlimit="8" stroke-opacity="1" fill="none" fill-rule="evenodd"/><path d="M0 0 60.203 346.537" stroke="#4472C4" stroke-width="6.875" stroke-linecap="butt" stroke-linejoin="miter" stroke-miterlimit="8" stroke-opacity="1" fill="none" fill-rule="evenodd" transform="matrix(1 0 0 -1 3191.5 1259.04)"/><path d="M0 0 60.203 483.665" stroke="#4472C4" stroke-width="6.875" stroke-linecap="butt" stroke-linejoin="miter" stroke-miterlimit="8" stroke-opacity="1" fill="none" fill-rule="evenodd" transform="matrix(1 0 0 -1 3191.5 1396.17)"/><path d="M0 0 60.203 337.99" stroke="#4472C4" stroke-width="6.875" stroke-linecap="butt" stroke-linejoin="miter" stroke-miterlimit="8" stroke-opacity="1" fill="none" fill-rule="evenodd" transform="matrix(-1 0 0 1 3399.7 985.5)"/><path d="M0 0 60.203 612.246" stroke="#4472C4" stroke-width="6.875" stroke-linecap="butt" stroke-linejoin="miter" stroke-miterlimit="8" stroke-opacity="1" fill="none" fill-rule="evenodd" transform="matrix(-1 0 0 1 3399.7 711.5)"/><path d="M0 0 60.203 182.281" stroke="#4472C4" stroke-width="6.875" stroke-linecap="butt" stroke-linejoin="miter" stroke-miterlimit="8" stroke-opacity="1" fill="none" fill-rule="evenodd" transform="matrix(-1 0 0 1 3399.7 985.5)"/><path d="M3395.3 1121.91 3345.5 912.5" stroke="#4472C4" stroke-width="6.875" stroke-linecap="butt" stroke-linejoin="miter" stroke-miterlimit="8" stroke-opacity="1" fill="none" fill-rule="evenodd"/><path d="M3395.3 1259.04 3345.5 912.5" stroke="#4472C4" stroke-width="6.875" stroke-linecap="butt" stroke-linejoin="miter" stroke-miterlimit="8" stroke-opacity="1" fill="none" fill-rule="evenodd"/><path d="M1839.1 1079.13 1934.05 1080.49 1933.85 1094.24 1838.9 1092.87ZM1927.37 1066.64 1968.32 1087.86 1926.78 1107.89Z" fill="#000000" fill-rule="nonzero" fill-opacity="1"/><path d="M2438.1 1080.13 2533.05 1081.49 2532.85 1095.24 2437.9 1093.87ZM2526.37 1067.64 2567.32 1088.86 2525.78 1108.89Z" fill="#000000" fill-rule="nonzero" fill-opacity="1"/><path d="M2925.1 1078.13 3020.05 1079.49 3019.85 1093.24 2924.9 1091.87ZM3013.37 1065.64 3054.32 1086.86 3012.78 1106.89Z" fill="#000000" fill-rule="nonzero" fill-opacity="1"/></g></svg>