<svg width="1754" height="2088" xmlns="http://www.w3.org/2000/svg" xmlns:xlink="http://www.w3.org/1999/xlink" overflow="hidden"><defs><clipPath id="clip0"><rect x="1163" y="122" width="1754" height="2088"/></clipPath></defs><g clip-path="url(#clip0)" transform="translate(-1163 -122)"><rect x="1165.5" y="125.5" width="1749" height="2037" stroke="#FFFFFF" stroke-width="4.58333" stroke-miterlimit="8" fill="#FFFFFF"/><path d="M1654.5 1764.5C1654.5 1728.6 1683.6 1699.5 1719.5 1699.5 1755.4 1699.5 1784.5 1728.6 1784.5 1764.5 1784.5 1800.4 1755.4 1829.5 1719.5 1829.5 1683.6 1829.5 1654.5 1800.4 1654.5 1764.5Z" fill="#FFFFFF" fill-rule="evenodd"/><path d="M1719.5 1699.5 1719.5 1829.5M1654.5 1764.5 1784.5 1764.5" stroke="#000000" stroke-width="4.58333" stroke-miterlimit="8" fill="none" fill-rule="evenodd"/><path d="M1654.5 1764.5C1654.5 1728.6 1683.6 1699.5 1719.5 1699.5 1755.4 1699.5 1784.5 1728.6 1784.5 1764.5 1784.5 1800.4 1755.4 1829.5 1719.5 1829.5 1683.6 1829.5 1654.5 1800.4 1654.5 1764.5Z" stroke="#000000" stroke-width="4.58333" stroke-miterlimit="8" fill="none" fill-rule="evenodd"/><rect x="1879.5" y="1550.5" width="321" height="102" stroke="#507E32" stroke-width="4.58333" stroke-miterlimit="8" fill="#70AD47"/><text fill="#FFFFFF" font-family="Times New Roman,Times New Roman_MSFontService,sans-serif" font-weight="400" font-size="83" transform="matrix(1 0 0 1 1959.67 1631)">conv</text><path d="M2044.13 1652.5 2044.13 1768.53 1807.42 1768.53 1807.42 1761.65 2040.69 1761.65 2037.26 1765.09 2037.26 1652.5ZM1812 1778.84 1784.5 1765.09 1812 1751.34Z"/><rect x="1558.5" y="1962.5" width="321" height="102" stroke="#507E32" stroke-width="4.58333" stroke-miterlimit="8" fill="#70AD47"/><text fill="#FFFFFF" font-family="Times New Roman,Times New Roman_MSFontService,sans-serif" font-weight="400" font-size="83" transform="matrix(1 0 0 1 1638.51 2043)">conv</text><rect x="1415.5" y="2060.5" width="553" height="102" stroke="#000000" stroke-width="4.58333" stroke-miterlimit="8" fill="#FFFFFF"/><text font-family="Times New Roman,Times New Roman_MSFontService,sans-serif" font-weight="400" font-size="83" transform="matrix(1 0 0 1 1482.56 2141)">Pixel shuffle</text><path d="M1722.94 1829.5 1722.94 1939.26 1716.06 1939.26 1716.06 1829.5ZM1733.25 1934.68 1719.5 1962.18 1705.75 1934.68Z"/><rect x="1679.5" y="279.5" width="321" height="102" stroke="#507E32" stroke-width="4.58333" stroke-miterlimit="8" fill="#70AD47"/><text fill="#FFFFFF" font-family="Times New Roman,Times New Roman_MSFontService,sans-serif" font-weight="400" font-size="83" transform="matrix(1 0 0 1 1759.39 361)">conv</text><rect x="1879.5" y="1220.5" width="321" height="103" stroke="#2F528F" stroke-width="4.58333" stroke-miterlimit="8" fill="#4472C4"/><text fill="#FFFFFF" font-family="Times New Roman,Times New Roman_MSFontService,sans-serif" font-weight="400" font-size="83" transform="matrix(1 0 0 1 1931.51 1302)">RFDB</text><path d="M1835.94 122.5 1835.94 256.078 1829.06 256.078 1829.06 122.5ZM1846.25 251.495 1832.5 278.995 1818.75 251.495Z"/><path d="M2042.94 1323.49 2043.53 1527.7 2036.65 1527.72 2036.06 1323.51ZM2053.83 1523.09 2040.16 1550.62 2026.33 1523.16Z"/><rect x="1879.5" y="770.5" width="321" height="102" stroke="#41719C" stroke-width="4.58333" stroke-miterlimit="8" fill="#5B9BD5"/><text fill="#FFFFFF" font-family="Times New Roman,Times New Roman_MSFontService,sans-serif" font-weight="400" font-size="73" transform="matrix(1 0 0 1 1923.77 848)">RFDBS</text><rect x="1759.5" y="577.5" width="241" height="102" stroke="#000000" stroke-width="4.58333" stroke-miterlimit="8" fill="#FFFFFF"/><text font-family="Times New Roman,Times New Roman_MSFontService,sans-serif" font-weight="400" font-size="83" transform="matrix(1 0 0 1 1808.63 658)">split</text><rect x="1679.5" y="577.5" width="80.0001" height="102" stroke="#000000" stroke-width="4.58333" stroke-miterlimit="8" fill="#FFFFFF"/><path d="M3.4375-0.00168226 3.92576 997.698-2.94924 997.701-3.4375 0.00168226ZM14.236 993.111 0.499475 1020.62-13.264 993.125Z" transform="matrix(-1 0 0 1 1720 679.5)"/><path d="M1843.94 381.5 1843.94 554.202 1837.06 554.202 1837.06 381.5ZM1854.25 549.619 1840.5 577.119 1826.75 549.619Z"/><path d="M1882.2 676.515 2022.13 756.404 2018.72 762.375 1878.8 682.485ZM2023.26 745.176 2040.33 770.752 2009.63 769.058Z"/><rect x="1880.5" y="993.5" width="322" height="102" stroke="#000000" stroke-width="4.58333" stroke-miterlimit="8" fill="#FFFFFF"/><text font-family="Times New Roman,Times New Roman_MSFontService,sans-serif" font-weight="400" font-size="83" transform="matrix(1 0 0 1 1933.29 1075)">concat</text><path d="M2043.94 872.458 2045.15 970.845 2038.28 970.93 2037.06 872.542ZM2055.41 966.135 2042 993.803 2027.91 966.475Z"/><path d="M0-3.4375 369.085-3.4375 369.085 138.284 362.21 138.284 362.21 0 365.647 3.4375 0 3.4375ZM379.397 133.701 365.647 161.201 351.897 133.701Z" transform="matrix(1.83697e-16 1 1 -1.83697e-16 1719.5 679.5)"/><path d="M3.43715-0.0489479 4.89184 102.1-1.98247 102.198-3.43715 0.0489479ZM15.138 97.3703 1.781 125.063-12.3592 97.7619Z" transform="matrix(-1 0 0 1 2041.28 1095.5)"/></g></svg>