<svg width="1754" height="2088" xmlns="http://www.w3.org/2000/svg" xmlns:xlink="http://www.w3.org/1999/xlink" overflow="hidden"><defs><clipPath id="clip0"><rect x="1163" y="122" width="1754" height="2088"/></clipPath></defs><g clip-path="url(#clip0)" transform="translate(-1163 -122)"><rect x="1165.5" y="125.5" width="1749" height="2037" stroke="#FFFFFF" stroke-width="4.58333" stroke-miterlimit="8" fill="#FFFFFF"/><rect x="1879.5" y="1448.5" width="321" height="102" stroke="#000000" stroke-width="4.58333" stroke-miterlimit="8" fill="#FFFFFF"/><text font-family="Times New Roman,Times New Roman_MSFontService,sans-serif" font-weight="400" font-size="83" transform="matrix(1 0 0 1 1932.17 1529)">concat</text><path d="M1654.5 1764.5C1654.5 1728.6 1683.6 1699.5 1719.5 1699.5 1755.4 1699.5 1784.5 1728.6 1784.5 1764.5 1784.5 1800.4 1755.4 1829.5 1719.5 1829.5 1683.6 1829.5 1654.5 1800.4 1654.5 1764.5Z" fill="#FFFFFF" fill-rule="evenodd"/><path d="M1719.5 1699.5 1719.5 1829.5M1654.5 1764.5 1784.5 1764.5" stroke="#000000" stroke-width="4.58333" stroke-miterlimit="8" fill="none" fill-rule="evenodd"/><path d="M1654.5 1764.5C1654.5 1728.6 1683.6 1699.5 1719.5 1699.5 1755.4 1699.5 1784.5 1728.6 1784.5 1764.5 1784.5 1800.4 1755.4 1829.5 1719.5 1829.5 1683.6 1829.5 1654.5 1800.4 1654.5 1764.5Z" stroke="#000000" stroke-width="4.58333" stroke-miterlimit="8" fill="none" fill-rule="evenodd"/><rect x="1879.5" y="1550.5" width="321" height="102" stroke="#507E32" stroke-width="4.58333" stroke-miterlimit="8" fill="#70AD47"/><text fill="#FFFFFF" font-family="Times New Roman,Times New Roman_MSFontService,sans-serif" font-weight="400" font-size="83" transform="matrix(1 0 0 1 1959.67 1631)">conv</text><path d="M2041.34 1652 2041.34 1765.73 1806.92 1765.73 1806.92 1763.44 2040.19 1763.44 2039.05 1764.59 2039.05 1652ZM1811.5 1778.34 1784 1764.59 1811.5 1750.84Z"/><rect x="1558.5" y="1962.5" width="321" height="102" stroke="#507E32" stroke-width="4.58333" stroke-miterlimit="8" fill="#70AD47"/><text fill="#FFFFFF" font-family="Times New Roman,Times New Roman_MSFontService,sans-serif" font-weight="400" font-size="83" transform="matrix(1 0 0 1 1638.51 2043)">conv</text><rect x="1415.5" y="2060.5" width="553" height="102" stroke="#000000" stroke-width="4.58333" stroke-miterlimit="8" fill="#FFFFFF"/><text font-family="Times New Roman,Times New Roman_MSFontService,sans-serif" font-weight="400" font-size="83" transform="matrix(1 0 0 1 1482.56 2141)">Pixel shuffle</text><path d="M1720.15 1829 1720.15 1938.76 1717.85 1938.76 1717.85 1829ZM1732.75 1934.18 1719 1961.68 1705.25 1934.18Z"/><rect x="1679.5" y="279.5" width="321" height="102" stroke="#507E32" stroke-width="4.58333" stroke-miterlimit="8" fill="#70AD47"/><text fill="#FFFFFF" font-family="Times New Roman,Times New Roman_MSFontService,sans-serif" font-weight="400" font-size="83" transform="matrix(1 0 0 1 1759.39 361)">conv</text><rect x="1879.5" y="1220.5" width="321" height="103" stroke="#2F528F" stroke-width="4.58333" stroke-miterlimit="8" fill="#4472C4"/><text fill="#FFFFFF" font-family="Times New Roman,Times New Roman_MSFontService,sans-serif" font-weight="400" font-size="83" transform="matrix(1 0 0 1 1931.51 1302)">RFDB</text><path d="M1833.15 122 1833.15 255.578 1830.85 255.578 1830.85 122ZM1845.75 250.995 1832 278.495 1818.25 250.995Z"/><path d="M2040.15 1322.99 2040.68 1425.14 2038.39 1425.15 2037.85 1323.01ZM2053.26 1420.49 2039.66 1448.06 2025.76 1420.64Z"/><rect x="1879.5" y="770.5" width="321" height="102" stroke="#41719C" stroke-width="4.58333" stroke-miterlimit="8" fill="#5B9BD5"/><text fill="#FFFFFF" font-family="Times New Roman,Times New Roman_MSFontService,sans-serif" font-weight="400" font-size="73" transform="matrix(1 0 0 1 1923.77 848)">RFDBS</text><rect x="1759.5" y="577.5" width="241" height="102" stroke="#000000" stroke-width="4.58333" stroke-miterlimit="8" fill="#FFFFFF"/><text font-family="Times New Roman,Times New Roman_MSFontService,sans-serif" font-weight="400" font-size="83" transform="matrix(1 0 0 1 1808.63 658)">split</text><rect x="1679.5" y="577.5" width="80.0001" height="102" stroke="#000000" stroke-width="4.58333" stroke-miterlimit="8" fill="#FFFFFF"/><path d="M1.14583-0.000560753 1.63409 997.699-0.657574 997.7-1.14583 0.000560753ZM14.236 993.111 0.499475 1020.62-13.264 993.125Z" transform="matrix(-1 0 0 1 1719.5 679)"/><path d="M1841.15 381 1841.15 553.702 1838.85 553.702 1838.85 381ZM1853.75 549.118 1840 576.618 1826.25 549.118Z"/><path d="M1880.57 678.005 2020.49 757.894 2019.36 759.884 1879.43 679.995ZM2022.76 744.676 2039.83 770.252 2009.13 768.557Z"/><rect x="1880.5" y="993.5" width="322" height="102" stroke="#000000" stroke-width="4.58333" stroke-miterlimit="8" fill="#FFFFFF"/><text font-family="Times New Roman,Times New Roman_MSFontService,sans-serif" font-weight="400" font-size="83" transform="matrix(1 0 0 1 1933.29 1075)">concat</text><path d="M2041.15 871.986 2042.36 970.374 2040.07 970.402 2038.85 872.014ZM2054.91 965.635 2041.5 993.303 2027.41 965.975Z"/><path d="M0-1.14583 366.793-1.14583 366.793 138.284 364.501 138.284 364.501 0 365.647 1.14583 0 1.14583ZM379.397 133.701 365.647 161.201 351.897 133.701Z" transform="matrix(1.83697e-16 1 1 -1.83697e-16 1719 679)"/><path d="M1.14572-0.016316 2.6004 102.133 0.308968 102.165-1.14572 0.016316ZM15.138 97.3703 1.781 125.063-12.3592 97.7619Z" transform="matrix(-1 0 0 1 2040.78 1095)"/></g></svg>