<svg width="1752" height="2088" xmlns="http://www.w3.org/2000/svg" xmlns:xlink="http://www.w3.org/1999/xlink" overflow="hidden"><defs><clipPath id="clip0"><rect x="1413" y="122" width="1752" height="2088"/></clipPath></defs><g clip-path="url(#clip0)" transform="translate(-1413 -122)"><rect x="1558.5" y="279.5" width="1284" height="102" stroke="#507E32" stroke-width="4.58333" stroke-miterlimit="8" fill="#70AD47"/><text fill="#FFFFFF" font-family="Times New Roman,Times New Roman_MSFontService,sans-serif" font-weight="400" font-size="83" transform="matrix(1 0 0 1 2119.75 361)">conv</text><rect x="1879.5" y="1220.5" width="1283" height="103" stroke="#2F528F" stroke-width="4.58333" stroke-miterlimit="8" fill="#4472C4"/><text fill="#FFFFFF" font-family="Times New Roman,Times New Roman_MSFontService,sans-serif" font-weight="400" font-size="83" transform="matrix(1 0 0 1 2412.87 1302)">RFDB</text><rect x="2361.5" y="1448.5" width="321" height="102" stroke="#000000" stroke-width="4.58333" stroke-miterlimit="8" fill="#FFFFFF"/><text font-family="Times New Roman,Times New Roman_MSFontService,sans-serif" font-weight="400" font-size="83" transform="matrix(1 0 0 1 2413.43 1529)">concat</text><path d="M2200.15 122 2200.15 255.578 2197.85 255.578 2197.85 122ZM2212.75 250.995 2199 278.495 2185.25 250.995Z"/><path d="M2522.15 1322.99 2522.6 1425.14 2520.31 1425.15 2519.85 1323.01ZM2535.19 1420.5 2521.56 1448.06 2507.69 1420.63Z"/><path d="M1654.5 1764.5C1654.5 1728.6 1683.6 1699.5 1719.5 1699.5 1755.4 1699.5 1784.5 1728.6 1784.5 1764.5 1784.5 1800.4 1755.4 1829.5 1719.5 1829.5 1683.6 1829.5 1654.5 1800.4 1654.5 1764.5Z" fill="#FFFFFF" fill-rule="evenodd"/><path d="M1719.5 1699.5 1719.5 1829.5M1654.5 1764.5 1784.5 1764.5" stroke="#000000" stroke-width="4.58333" stroke-miterlimit="8" fill="none" fill-rule="evenodd"/><path d="M1654.5 1764.5C1654.5 1728.6 1683.6 1699.5 1719.5 1699.5 1755.4 1699.5 1784.5 1728.6 1784.5 1764.5 1784.5 1800.4 1755.4 1829.5 1719.5 1829.5 1683.6 1829.5 1654.5 1800.4 1654.5 1764.5Z" stroke="#000000" stroke-width="4.58333" stroke-miterlimit="8" fill="none" fill-rule="evenodd"/><rect x="2361.5" y="1550.5" width="321" height="102" stroke="#507E32" stroke-width="4.58333" stroke-miterlimit="8" fill="#70AD47"/><text fill="#FFFFFF" font-family="Times New Roman,Times New Roman_MSFontService,sans-serif" font-weight="400" font-size="83" transform="matrix(1 0 0 1 2440.93 1631)">conv</text><path d="M2522.6 1652 2522.6 1765.73 1806.92 1765.73 1806.92 1763.44 2521.45 1763.44 2520.31 1764.59 2520.31 1652ZM1811.5 1778.34 1784 1764.59 1811.5 1750.84Z"/><rect x="1558.5" y="1962.5" width="321" height="102" stroke="#507E32" stroke-width="4.58333" stroke-miterlimit="8" fill="#70AD47"/><text fill="#FFFFFF" font-family="Times New Roman,Times New Roman_MSFontService,sans-serif" font-weight="400" font-size="83" transform="matrix(1 0 0 1 1638.51 2043)">conv</text><rect x="1415.5" y="2060.5" width="553" height="102" stroke="#000000" stroke-width="4.58333" stroke-miterlimit="8" fill="#FFFFFF"/><text font-family="Times New Roman,Times New Roman_MSFontService,sans-serif" font-weight="400" font-size="83" transform="matrix(1 0 0 1 1482.56 2141)">Pixel shuffle</text><path d="M1720.15 1829 1720.15 1938.76 1717.85 1938.76 1717.85 1829ZM1732.75 1934.18 1719 1961.68 1705.25 1934.18Z"/><rect x="1879.5" y="770.5" width="963" height="102" stroke="#41719C" stroke-width="4.58333" stroke-miterlimit="8" fill="#5B9BD5"/><text fill="#FFFFFF" font-family="Times New Roman,Times New Roman_MSFontService,sans-serif" font-weight="400" font-size="73" transform="matrix(1 0 0 1 2244.68 848)">RFDBS</text><rect x="1879.5" y="577.5" width="963" height="102" stroke="#000000" stroke-width="4.58333" stroke-miterlimit="8" fill="#FFFFFF"/><text font-family="Times New Roman,Times New Roman_MSFontService,sans-serif" font-weight="400" font-size="83" transform="matrix(1 0 0 1 2289.22 658)">split</text><rect x="1558.5" y="577.5" width="321" height="102" stroke="#000000" stroke-width="4.58333" stroke-miterlimit="8" fill="#FFFFFF"/><text font-family="Times New Roman,Times New Roman_MSFontService,sans-serif" font-weight="400" font-size="83" transform="matrix(1 0 0 1 1647.41 658)">split</text><path d="M1719.15 679 1719.41 1676.7 1717.12 1676.7 1716.85 679ZM1732.01 1672.11 1718.27 1699.62 1704.51 1672.12Z"/><path d="M2201.15 381 2201.15 553.702 2198.85 553.702 2198.85 381ZM2213.75 549.118 2200 576.618 2186.25 549.118Z"/><path d="M2361.15 678.998 2361.25 747.333 2358.96 747.337 2358.85 679.002ZM2373.85 742.73 2360.14 770.252 2346.35 742.773Z"/><rect x="2199.5" y="993.5" width="322" height="102" stroke="#000000" stroke-width="4.58333" stroke-miterlimit="8" fill="#FFFFFF"/><text font-family="Times New Roman,Times New Roman_MSFontService,sans-serif" font-weight="400" font-size="83" transform="matrix(1 0 0 1 2252.29 1075)">concat</text><path d="M1.14583-0.00384875 1.4763 98.3824-0.815354 98.3901-1.14583 0.00384875ZM14.065 93.7568 0.407448 121.303-13.4348 93.8491Z" transform="matrix(-1 0 0 1 2360.41 872)"/><path d="M0-1.14583 366.793-1.14583 366.793 458.051 364.501 458.051 364.501 0 365.647 1.14583 0 1.14583ZM379.397 453.467 365.647 480.967 351.897 453.467Z" transform="matrix(1.83697e-16 1 1 -1.83697e-16 1718 679)"/><path d="M2361.15 1095 2361.15 1197.15 2358.85 1197.15 2358.85 1095ZM2373.75 1192.56 2360 1220.06 2346.25 1192.56Z"/></g></svg>