<svg width="1752" height="2088" xmlns="http://www.w3.org/2000/svg" xmlns:xlink="http://www.w3.org/1999/xlink" overflow="hidden"><defs><clipPath id="clip0"><rect x="1413" y="122" width="1752" height="2088"/></clipPath></defs><g clip-path="url(#clip0)" transform="translate(-1413 -122)"><rect x="1558.5" y="279.5" width="1284" height="102" stroke="#507E32" stroke-width="4.58333" stroke-miterlimit="8" fill="#70AD47"/><text fill="#FFFFFF" font-family="Times New Roman,Times New Roman_MSFontService,sans-serif" font-weight="400" font-size="83" transform="matrix(1 0 0 1 2119.75 361)">conv</text><rect x="1879.5" y="1220.5" width="1283" height="103" stroke="#2F528F" stroke-width="4.58333" stroke-miterlimit="8" fill="#4472C4"/><text fill="#FFFFFF" font-family="Times New Roman,Times New Roman_MSFontService,sans-serif" font-weight="400" font-size="83" transform="matrix(1 0 0 1 2412.87 1302)">RFDB</text><path d="M2202.94 122.5 2202.94 256.078 2196.06 256.078 2196.06 122.5ZM2213.25 251.495 2199.5 278.995 2185.75 251.495Z"/><path d="M2524.94 1323.49 2525.44 1527.7 2518.57 1527.72 2518.06 1323.51ZM2535.74 1523.09 2522.06 1550.62 2508.24 1523.16Z"/><path d="M1654.5 1764.5C1654.5 1728.6 1683.6 1699.5 1719.5 1699.5 1755.4 1699.5 1784.5 1728.6 1784.5 1764.5 1784.5 1800.4 1755.4 1829.5 1719.5 1829.5 1683.6 1829.5 1654.5 1800.4 1654.5 1764.5Z" fill="#FFFFFF" fill-rule="evenodd"/><path d="M1719.5 1699.5 1719.5 1829.5M1654.5 1764.5 1784.5 1764.5" stroke="#000000" stroke-width="4.58333" stroke-miterlimit="8" fill="none" fill-rule="evenodd"/><path d="M1654.5 1764.5C1654.5 1728.6 1683.6 1699.5 1719.5 1699.5 1755.4 1699.5 1784.5 1728.6 1784.5 1764.5 1784.5 1800.4 1755.4 1829.5 1719.5 1829.5 1683.6 1829.5 1654.5 1800.4 1654.5 1764.5Z" stroke="#000000" stroke-width="4.58333" stroke-miterlimit="8" fill="none" fill-rule="evenodd"/><rect x="2361.5" y="1550.5" width="321" height="102" stroke="#507E32" stroke-width="4.58333" stroke-miterlimit="8" fill="#70AD47"/><text fill="#FFFFFF" font-family="Times New Roman,Times New Roman_MSFontService,sans-serif" font-weight="400" font-size="83" transform="matrix(1 0 0 1 2440.93 1631)">conv</text><path d="M2525.39 1652.5 2525.39 1768.53 1807.42 1768.53 1807.42 1761.65 2521.95 1761.65 2518.52 1765.09 2518.52 1652.5ZM1812 1778.84 1784.5 1765.09 1812 1751.34Z"/><rect x="1558.5" y="1962.5" width="321" height="102" stroke="#507E32" stroke-width="4.58333" stroke-miterlimit="8" fill="#70AD47"/><text fill="#FFFFFF" font-family="Times New Roman,Times New Roman_MSFontService,sans-serif" font-weight="400" font-size="83" transform="matrix(1 0 0 1 1638.51 2043)">conv</text><rect x="1415.5" y="2060.5" width="553" height="102" stroke="#000000" stroke-width="4.58333" stroke-miterlimit="8" fill="#FFFFFF"/><text font-family="Times New Roman,Times New Roman_MSFontService,sans-serif" font-weight="400" font-size="83" transform="matrix(1 0 0 1 1482.56 2141)">Pixel shuffle</text><path d="M1722.94 1829.5 1722.94 1939.26 1716.06 1939.26 1716.06 1829.5ZM1733.25 1934.68 1719.5 1962.18 1705.75 1934.68Z"/><rect x="1879.5" y="770.5" width="963" height="102" stroke="#41719C" stroke-width="4.58333" stroke-miterlimit="8" fill="#5B9BD5"/><text fill="#FFFFFF" font-family="Times New Roman,Times New Roman_MSFontService,sans-serif" font-weight="400" font-size="73" transform="matrix(1 0 0 1 2244.68 848)">RFDBS</text><rect x="1879.5" y="577.5" width="963" height="102" stroke="#000000" stroke-width="4.58333" stroke-miterlimit="8" fill="#FFFFFF"/><text font-family="Times New Roman,Times New Roman_MSFontService,sans-serif" font-weight="400" font-size="83" transform="matrix(1 0 0 1 2289.22 658)">split</text><rect x="1558.5" y="577.5" width="321" height="102" stroke="#000000" stroke-width="4.58333" stroke-miterlimit="8" fill="#FFFFFF"/><text font-family="Times New Roman,Times New Roman_MSFontService,sans-serif" font-weight="400" font-size="83" transform="matrix(1 0 0 1 1647.41 658)">split</text><path d="M1721.94 679.499 1722.2 1677.2 1715.32 1677.2 1715.06 679.501ZM1732.51 1672.61 1718.77 1700.12 1705.01 1672.62Z"/><path d="M2203.94 381.5 2203.94 554.202 2197.06 554.202 2197.06 381.5ZM2214.25 549.619 2200.5 577.119 2186.75 549.619Z"/><path d="M2363.94 679.495 2364.04 747.83 2357.17 747.84 2357.06 679.505ZM2374.35 743.23 2360.64 770.752 2346.85 743.273Z"/><rect x="2199.5" y="993.5" width="322" height="102" stroke="#000000" stroke-width="4.58333" stroke-miterlimit="8" fill="#FFFFFF"/><text font-family="Times New Roman,Times New Roman_MSFontService,sans-serif" font-weight="400" font-size="83" transform="matrix(1 0 0 1 2252.29 1075)">concat</text><path d="M3.43748-0.0115463 3.76795 98.3747-3.10701 98.3978-3.43748 0.0115463ZM14.065 93.7568 0.407448 121.303-13.4348 93.8491Z" transform="matrix(-1 0 0 1 2360.91 872.5)"/><path d="M0-3.4375 369.085-3.4375 369.085 458.051 362.21 458.051 362.21 0 365.647 3.4375 0 3.4375ZM379.397 453.467 365.647 480.967 351.897 453.467Z" transform="matrix(1.83697e-16 1 1 -1.83697e-16 1718.5 679.5)"/><path d="M2363.94 1095.5 2363.94 1197.65 2357.06 1197.65 2357.06 1095.5ZM2374.25 1193.06 2360.5 1220.56 2346.75 1193.06Z"/></g></svg>