<svg width="1754" height="2088" xmlns="http://www.w3.org/2000/svg" xmlns:xlink="http://www.w3.org/1999/xlink" overflow="hidden"><defs><clipPath id="clip0"><rect x="1413" y="122" width="1754" height="2088"/></clipPath></defs><g clip-path="url(#clip0)" transform="translate(-1413 -122)"><rect x="1558.5" y="279.5" width="321" height="102" stroke="#507E32" stroke-width="4.58333" stroke-miterlimit="8" fill="#70AD47"/><text fill="#FFFFFF" font-family="Times New Roman,Times New Roman_MSFontService,sans-serif" font-weight="400" font-size="83" transform="matrix(1 0 0 1 1638.51 361)">conv</text><rect x="1879.5" y="547.5" width="321" height="102" stroke="#2F528F" stroke-width="4.58333" stroke-miterlimit="8" fill="#4472C4"/><text fill="#FFFFFF" font-family="Times New Roman,Times New Roman_MSFontService,sans-serif" font-weight="400" font-size="83" transform="matrix(1 0 0 1 1932.17 629)">RFDB</text><rect x="2200.5" y="772.5" width="322" height="102" stroke="#2F528F" stroke-width="4.58333" stroke-miterlimit="8" fill="#4472C4"/><text fill="#FFFFFF" font-family="Times New Roman,Times New Roman_MSFontService,sans-serif" font-weight="400" font-size="83" transform="matrix(1 0 0 1 2253.32 854)">RFDB</text><rect x="2522.5" y="997.5" width="321" height="102" stroke="#2F528F" stroke-width="4.58333" stroke-miterlimit="8" fill="#4472C4"/><text fill="#FFFFFF" font-family="Times New Roman,Times New Roman_MSFontService,sans-serif" font-weight="400" font-size="83" transform="matrix(1 0 0 1 2574.48 1079)">RFDB</text><rect x="2843.5" y="1222.5" width="321" height="103" stroke="#2F528F" stroke-width="4.58333" stroke-miterlimit="8" fill="#4472C4"/><text fill="#FFFFFF" font-family="Times New Roman,Times New Roman_MSFontService,sans-serif" font-weight="400" font-size="83" transform="matrix(1 0 0 1 2895.63 1304)">RFDB</text><path d="M1721.08 378.447 2021.88 534.052 2018.72 540.158 1717.92 384.553ZM2022.55 522.787 2040.65 547.635 2009.91 547.212Z"/><path d="M2041.73 646.29 2341.48 761.132 2339.02 767.552 2039.27 652.71ZM2340.89 749.863 2361.65 772.541 2331.06 775.542Z"/><path d="M2362.73 871.29 2662.48 986.132 2660.02 992.552 2360.27 877.71ZM2661.89 974.863 2682.65 997.541 2652.06 1000.54Z"/><path d="M2683.73 1096.29 2983.48 1211.13 2981.02 1217.55 2681.27 1102.71ZM2982.89 1199.86 3003.65 1222.54 2973.06 1225.54Z"/><rect x="1879.5" y="1448.5" width="321" height="102" stroke="#000000" stroke-width="4.58333" stroke-miterlimit="8" fill="#FFFFFF"/><text font-family="Times New Roman,Times New Roman_MSFontService,sans-serif" font-weight="400" font-size="83" transform="matrix(1 0 0 1 1932.17 1529)">concat</text><path d="M0.435457-3.40981 941.166 116.728 940.295 123.548-0.435457 3.40981ZM937.927 105.918 963.464 123.041 934.444 133.197Z" transform="matrix(-1 0 0 1 3003.96 1325.5)"/><path d="M1722.94 122.5 1722.94 256.078 1716.06 256.078 1716.06 122.5ZM1733.25 251.495 1719.5 278.995 1705.75 251.495Z"/><path d="M1.63805-3.02212 623.799 334.201 620.523 340.246-1.63805 3.02212ZM624.684 322.951 642.309 348.144 611.58 347.128Z" transform="matrix(-1 0 0 1 2682.81 1099.5)"/><path d="M2.99894-1.68012 312.953 551.575 306.955 554.935-2.99894 1.68012ZM319.709 542.535 321.155 573.247 295.718 555.976Z" transform="matrix(-1 0 0 1 2361.65 874.5)"/><path d="M2043.94 649.5 2043.94 1424.93 2037.06 1424.93 2037.06 649.5ZM2054.25 1420.35 2040.5 1447.85 2026.75 1420.35Z"/><path d="M1654.5 1764.5C1654.5 1728.6 1683.6 1699.5 1719.5 1699.5 1755.4 1699.5 1784.5 1728.6 1784.5 1764.5 1784.5 1800.4 1755.4 1829.5 1719.5 1829.5 1683.6 1829.5 1654.5 1800.4 1654.5 1764.5Z" fill="#FFFFFF" fill-rule="evenodd"/><path d="M1719.5 1699.5 1719.5 1829.5M1654.5 1764.5 1784.5 1764.5" stroke="#000000" stroke-width="4.58333" stroke-miterlimit="8" fill="none" fill-rule="evenodd"/><path d="M1654.5 1764.5C1654.5 1728.6 1683.6 1699.5 1719.5 1699.5 1755.4 1699.5 1784.5 1728.6 1784.5 1764.5 1784.5 1800.4 1755.4 1829.5 1719.5 1829.5 1683.6 1829.5 1654.5 1800.4 1654.5 1764.5Z" stroke="#000000" stroke-width="4.58333" stroke-miterlimit="8" fill="none" fill-rule="evenodd"/><rect x="1879.5" y="1550.5" width="321" height="102" stroke="#507E32" stroke-width="4.58333" stroke-miterlimit="8" fill="#70AD47"/><text fill="#FFFFFF" font-family="Times New Roman,Times New Roman_MSFontService,sans-serif" font-weight="400" font-size="83" transform="matrix(1 0 0 1 1959.67 1631)">conv</text><path d="M2044.13 1652.5 2044.13 1768.53 1807.42 1768.53 1807.42 1761.65 2040.69 1761.65 2037.26 1765.09 2037.26 1652.5ZM1812 1778.84 1784.5 1765.09 1812 1751.34Z"/><path d="M1722.94 381.5 1722.94 1676.88 1716.06 1676.88 1716.06 381.5ZM1733.25 1672.3 1719.5 1699.8 1705.75 1672.3Z"/><rect x="1558.5" y="1962.5" width="321" height="102" stroke="#507E32" stroke-width="4.58333" stroke-miterlimit="8" fill="#70AD47"/><text fill="#FFFFFF" font-family="Times New Roman,Times New Roman_MSFontService,sans-serif" font-weight="400" font-size="83" transform="matrix(1 0 0 1 1638.51 2043)">conv</text><rect x="1415.5" y="2060.5" width="553" height="102" stroke="#000000" stroke-width="4.58333" stroke-miterlimit="8" fill="#FFFFFF"/><text font-family="Times New Roman,Times New Roman_MSFontService,sans-serif" font-weight="400" font-size="83" transform="matrix(1 0 0 1 1482.56 2141)">Pixel shuffle</text><path d="M1722.94 1829.5 1722.94 1939.26 1716.06 1939.26 1716.06 1829.5ZM1733.25 1934.68 1719.5 1962.18 1705.75 1934.68Z"/></g></svg>