<svg width="1754" height="2088" xmlns="http://www.w3.org/2000/svg" xmlns:xlink="http://www.w3.org/1999/xlink" overflow="hidden"><defs><clipPath id="clip0"><rect x="1413" y="122" width="1754" height="2088"/></clipPath></defs><g clip-path="url(#clip0)" transform="translate(-1413 -122)"><rect x="1558.5" y="279.5" width="321" height="102" stroke="#507E32" stroke-width="4.58333" stroke-miterlimit="8" fill="#70AD47"/><text fill="#FFFFFF" font-family="Times New Roman,Times New Roman_MSFontService,sans-serif" font-weight="400" font-size="83" transform="matrix(1 0 0 1 1638.51 361)">conv</text><rect x="1879.5" y="547.5" width="321" height="102" stroke="#2F528F" stroke-width="4.58333" stroke-miterlimit="8" fill="#4472C4"/><text fill="#FFFFFF" font-family="Times New Roman,Times New Roman_MSFontService,sans-serif" font-weight="400" font-size="83" transform="matrix(1 0 0 1 1932.17 629)">RFDB</text><rect x="2200.5" y="772.5" width="322" height="102" stroke="#2F528F" stroke-width="4.58333" stroke-miterlimit="8" fill="#4472C4"/><text fill="#FFFFFF" font-family="Times New Roman,Times New Roman_MSFontService,sans-serif" font-weight="400" font-size="83" transform="matrix(1 0 0 1 2253.32 854)">RFDB</text><rect x="2522.5" y="997.5" width="321" height="102" stroke="#2F528F" stroke-width="4.58333" stroke-miterlimit="8" fill="#4472C4"/><text fill="#FFFFFF" font-family="Times New Roman,Times New Roman_MSFontService,sans-serif" font-weight="400" font-size="83" transform="matrix(1 0 0 1 2574.48 1079)">RFDB</text><rect x="2843.5" y="1222.5" width="321" height="103" stroke="#2F528F" stroke-width="4.58333" stroke-miterlimit="8" fill="#4472C4"/><text fill="#FFFFFF" font-family="Times New Roman,Times New Roman_MSFontService,sans-serif" font-weight="400" font-size="83" transform="matrix(1 0 0 1 2895.63 1304)">RFDB</text><path d="M1719.53 379.982 2020.33 535.587 2019.27 537.623 1718.47 382.018ZM2022.05 522.286 2040.15 547.135 2009.41 546.712Z"/><path d="M2040.41 647.93 2340.16 762.772 2339.34 764.912 2039.59 650.07ZM2340.39 749.363 2361.15 772.041 2330.56 775.043Z"/><path d="M2361.41 872.93 2661.16 987.773 2660.34 989.913 2360.59 875.07ZM2661.39 974.363 2682.15 997.041 2651.56 1000.04Z"/><path d="M2682.41 1097.93 2982.16 1212.77 2981.34 1214.91 2681.59 1100.07ZM2982.39 1199.36 3003.15 1222.04 2972.56 1225.04Z"/><rect x="1879.5" y="1448.5" width="321" height="102" stroke="#000000" stroke-width="4.58333" stroke-miterlimit="8" fill="#FFFFFF"/><text font-family="Times New Roman,Times New Roman_MSFontService,sans-serif" font-weight="400" font-size="83" transform="matrix(1 0 0 1 1932.17 1529)">concat</text><path d="M0.145152-1.1366 940.876 119.001 940.586 121.275-0.145152 1.1366ZM937.927 105.918 963.464 123.041 934.444 133.197Z" transform="matrix(-1 0 0 1 3003.46 1325)"/><path d="M1720.15 122 1720.15 255.578 1717.85 255.578 1717.85 122ZM1732.75 250.995 1719 278.495 1705.25 250.995Z"/><path d="M0.546016-1.00737 622.707 336.216 621.615 338.231-0.546016 1.00737ZM624.684 322.951 642.309 348.144 611.58 347.128Z" transform="matrix(-1 0 0 1 2682.31 1099)"/><path d="M0.999645-0.560039 310.954 552.695 308.954 553.815-0.999645 0.560039ZM319.709 542.535 321.155 573.247 295.718 555.976Z" transform="matrix(-1 0 0 1 2361.15 874)"/><path d="M2041.15 649 2041.15 1424.43 2038.85 1424.43 2038.85 649ZM2053.75 1419.85 2040 1447.35 2026.25 1419.85Z"/><path d="M1654.5 1764.5C1654.5 1728.6 1683.6 1699.5 1719.5 1699.5 1755.4 1699.5 1784.5 1728.6 1784.5 1764.5 1784.5 1800.4 1755.4 1829.5 1719.5 1829.5 1683.6 1829.5 1654.5 1800.4 1654.5 1764.5Z" fill="#FFFFFF" fill-rule="evenodd"/><path d="M1719.5 1699.5 1719.5 1829.5M1654.5 1764.5 1784.5 1764.5" stroke="#000000" stroke-width="4.58333" stroke-miterlimit="8" fill="none" fill-rule="evenodd"/><path d="M1654.5 1764.5C1654.5 1728.6 1683.6 1699.5 1719.5 1699.5 1755.4 1699.5 1784.5 1728.6 1784.5 1764.5 1784.5 1800.4 1755.4 1829.5 1719.5 1829.5 1683.6 1829.5 1654.5 1800.4 1654.5 1764.5Z" stroke="#000000" stroke-width="4.58333" stroke-miterlimit="8" fill="none" fill-rule="evenodd"/><rect x="1879.5" y="1550.5" width="321" height="102" stroke="#507E32" stroke-width="4.58333" stroke-miterlimit="8" fill="#70AD47"/><text fill="#FFFFFF" font-family="Times New Roman,Times New Roman_MSFontService,sans-serif" font-weight="400" font-size="83" transform="matrix(1 0 0 1 1959.67 1631)">conv</text><path d="M2041.34 1652 2041.34 1765.73 1806.92 1765.73 1806.92 1763.44 2040.19 1763.44 2039.05 1764.59 2039.05 1652ZM1811.5 1778.34 1784 1764.59 1811.5 1750.84Z"/><path d="M1720.15 381 1720.15 1676.38 1717.85 1676.38 1717.85 381ZM1732.75 1671.8 1719 1699.3 1705.25 1671.8Z"/><rect x="1558.5" y="1962.5" width="321" height="102" stroke="#507E32" stroke-width="4.58333" stroke-miterlimit="8" fill="#70AD47"/><text fill="#FFFFFF" font-family="Times New Roman,Times New Roman_MSFontService,sans-serif" font-weight="400" font-size="83" transform="matrix(1 0 0 1 1638.51 2043)">conv</text><rect x="1415.5" y="2060.5" width="553" height="102" stroke="#000000" stroke-width="4.58333" stroke-miterlimit="8" fill="#FFFFFF"/><text font-family="Times New Roman,Times New Roman_MSFontService,sans-serif" font-weight="400" font-size="83" transform="matrix(1 0 0 1 1482.56 2141)">Pixel shuffle</text><path d="M1720.15 1829 1720.15 1938.76 1717.85 1938.76 1717.85 1829ZM1732.75 1934.18 1719 1961.68 1705.25 1934.18Z"/></g></svg>