<svg width="1916" height="2090" xmlns="http://www.w3.org/2000/svg" xmlns:xlink="http://www.w3.org/1999/xlink" xml:space="preserve" overflow="hidden"><defs><clipPath id="clip0"><rect x="1090" y="192" width="1916" height="2090"/></clipPath></defs><g clip-path="url(#clip0)" transform="translate(-1090 -192)"><rect x="1237.5" y="349.5" width="321" height="103" stroke="#507E32" stroke-width="4.58333" stroke-linecap="butt" stroke-linejoin="miter" stroke-miterlimit="8" stroke-opacity="1" fill="#70AD47" fill-opacity="1"/><text fill="#FFFFFF" fill-opacity="1" font-family="Times New Roman,Times New Roman_MSFontService,sans-serif" font-style="normal" font-variant="normal" font-weight="400" font-stretch="normal" font-size="83" text-anchor="start" direction="ltr" writing-mode="lr-tb" unicode-bidi="normal" text-decoration="none" transform="matrix(1 0 0 1 1316.91 431)">conv</text><rect x="1558.5" y="618.5" width="321" height="102" stroke="#2F528F" stroke-width="4.58333" stroke-linecap="butt" stroke-linejoin="miter" stroke-miterlimit="8" stroke-opacity="1" fill="#4472C4" fill-opacity="1"/><text fill="#FFFFFF" fill-opacity="1" font-family="Times New Roman,Times New Roman_MSFontService,sans-serif" font-style="normal" font-variant="normal" font-weight="400" font-stretch="normal" font-size="83" text-anchor="start" direction="ltr" writing-mode="lr-tb" unicode-bidi="normal" text-decoration="none" transform="matrix(1 0 0 1 1610.56 699)">RFDB</text><rect x="1879.5" y="843.5" width="321" height="102" stroke="#2F528F" stroke-width="4.58333" stroke-linecap="butt" stroke-linejoin="miter" stroke-miterlimit="8" stroke-opacity="1" fill="#4472C4" fill-opacity="1"/><text fill="#FFFFFF" fill-opacity="1" font-family="Times New Roman,Times New Roman_MSFontService,sans-serif" font-style="normal" font-variant="normal" font-weight="400" font-stretch="normal" font-size="83" text-anchor="start" direction="ltr" writing-mode="lr-tb" unicode-bidi="normal" text-decoration="none" transform="matrix(1 0 0 1 1931.71 924)">RFDB</text><rect x="2200.5" y="1068.5" width="321" height="102" stroke="#2F528F" stroke-width="4.58333" stroke-linecap="butt" stroke-linejoin="miter" stroke-miterlimit="8" stroke-opacity="1" fill="#4472C4" fill-opacity="1"/><text fill="#FFFFFF" fill-opacity="1" font-family="Times New Roman,Times New Roman_MSFontService,sans-serif" font-style="normal" font-variant="normal" font-weight="400" font-stretch="normal" font-size="83" text-anchor="start" direction="ltr" writing-mode="lr-tb" unicode-bidi="normal" text-decoration="none" transform="matrix(1 0 0 1 2252.87 1149)">RFDB</text><rect x="2521.5" y="1293.5" width="321" height="102" stroke="#2F528F" stroke-width="4.58333" stroke-linecap="butt" stroke-linejoin="miter" stroke-miterlimit="8" stroke-opacity="1" fill="#4472C4" fill-opacity="1"/><text fill="#FFFFFF" fill-opacity="1" font-family="Times New Roman,Times New Roman_MSFontService,sans-serif" font-style="normal" font-variant="normal" font-weight="400" font-stretch="normal" font-size="83" text-anchor="start" direction="ltr" writing-mode="lr-tb" unicode-bidi="normal" text-decoration="none" transform="matrix(1 0 0 1 2574.02 1374)">RFDB</text><path d="M1399.08 449.447 1699.88 605.052 1696.72 611.158 1395.92 455.553ZM1700.55 593.786 1718.65 618.635 1687.91 618.212Z" fill="#000000" fill-rule="nonzero" fill-opacity="1"/><path d="M1719.73 717.29 2019.48 832.132 2017.02 838.552 1717.27 723.71ZM2018.89 820.863 2039.65 843.541 2009.06 846.543Z" fill="#000000" fill-rule="nonzero" fill-opacity="1"/><path d="M2040.73 942.29 2340.48 1057.13 2338.02 1063.55 2038.27 948.71ZM2339.89 1045.86 2360.65 1068.54 2330.06 1071.54Z" fill="#000000" fill-rule="nonzero" fill-opacity="1"/><path d="M2362.73 1167.29 2662.48 1282.13 2660.02 1288.55 2360.27 1173.71ZM2661.89 1270.86 2682.65 1293.54 2652.06 1296.54Z" fill="#000000" fill-rule="nonzero" fill-opacity="1"/><rect x="1558.5" y="1518.5" width="321" height="102" stroke="#000000" stroke-width="4.58333" stroke-linecap="butt" stroke-linejoin="miter" stroke-miterlimit="8" stroke-opacity="1" fill="#FFFFFF" fill-opacity="1"/><text fill="#000000" fill-opacity="1" font-family="Times New Roman,Times New Roman_MSFontService,sans-serif" font-style="normal" font-variant="normal" font-weight="400" font-stretch="normal" font-size="83" text-anchor="start" direction="ltr" writing-mode="lr-tb" unicode-bidi="normal" text-decoration="none" transform="matrix(1 0 0 1 1610.56 1600)">concat</text><path d="M0.435457-3.40981 941.166 116.728 940.295 123.548-0.435457 3.40981ZM937.927 105.918 963.464 123.041 934.444 133.197Z" fill="#000000" fill-rule="nonzero" fill-opacity="1" transform="matrix(-1 0 0 1 2681.96 1395.5)"/><path d="M1400.94 193.5 1400.94 327.078 1394.06 327.078 1394.06 193.5ZM1411.25 322.495 1397.5 349.995 1383.75 322.495Z" fill="#000000" fill-rule="nonzero" fill-opacity="1"/><path d="M1.63805-3.02212 623.799 334.201 620.523 340.246-1.63805 3.02212ZM624.684 322.951 642.309 348.144 611.58 347.128Z" fill="#000000" fill-rule="nonzero" fill-opacity="1" transform="matrix(-1 0 0 1 2360.81 1170.5)"/><path d="M2.99894-1.68012 312.953 551.575 306.955 554.935-2.99894 1.68012ZM319.709 542.535 321.155 573.247 295.718 555.976Z" fill="#000000" fill-rule="nonzero" fill-opacity="1" transform="matrix(-1 0 0 1 2039.65 945.5)"/><path d="M1721.94 720.5 1721.94 1495.93 1715.06 1495.93 1715.06 720.5ZM1732.25 1491.35 1718.5 1518.85 1704.75 1491.35Z" fill="#000000" fill-rule="nonzero" fill-opacity="1"/><path d="M1332.5 1835.5C1332.5 1799.6 1361.6 1770.5 1397.5 1770.5 1433.4 1770.5 1462.5 1799.6 1462.5 1835.5 1462.5 1871.4 1433.4 1900.5 1397.5 1900.5 1361.6 1900.5 1332.5 1871.4 1332.5 1835.5Z" fill="#FFFFFF" fill-rule="evenodd" fill-opacity="1"/><path d="M1397.5 1770.5 1397.5 1900.5M1332.5 1835.5 1462.5 1835.5" stroke="#000000" stroke-width="4.58333" stroke-linecap="butt" stroke-linejoin="miter" stroke-miterlimit="8" stroke-opacity="1" fill="none" fill-rule="evenodd"/><path d="M1332.5 1835.5C1332.5 1799.6 1361.6 1770.5 1397.5 1770.5 1433.4 1770.5 1462.5 1799.6 1462.5 1835.5 1462.5 1871.4 1433.4 1900.5 1397.5 1900.5 1361.6 1900.5 1332.5 1871.4 1332.5 1835.5Z" stroke="#000000" stroke-width="4.58333" stroke-linecap="butt" stroke-linejoin="miter" stroke-miterlimit="8" stroke-opacity="1" fill="none" fill-rule="evenodd"/><rect x="1558.5" y="1620.5" width="321" height="102" stroke="#507E32" stroke-width="4.58333" stroke-linecap="butt" stroke-linejoin="miter" stroke-miterlimit="8" stroke-opacity="1" fill="#70AD47" fill-opacity="1"/><text fill="#FFFFFF" fill-opacity="1" font-family="Times New Roman,Times New Roman_MSFontService,sans-serif" font-style="normal" font-variant="normal" font-weight="400" font-stretch="normal" font-size="83" text-anchor="start" direction="ltr" writing-mode="lr-tb" unicode-bidi="normal" text-decoration="none" transform="matrix(1 0 0 1 1638.06 1702)">conv</text><path d="M1722.13 1722.5 1722.13 1838.53 1485.42 1838.53 1485.42 1831.65 1718.69 1831.65 1715.26 1835.09 1715.26 1722.5ZM1490 1848.84 1462.5 1835.09 1490 1821.34Z" fill="#000000" fill-rule="nonzero" fill-opacity="1"/><path d="M1400.94 452.5 1400.94 1747.88 1394.06 1747.88 1394.06 452.5ZM1411.25 1743.3 1397.5 1770.8 1383.75 1743.3Z" fill="#000000" fill-rule="nonzero" fill-opacity="1"/><rect x="1237.5" y="2032.5" width="321" height="102" stroke="#507E32" stroke-width="4.58333" stroke-linecap="butt" stroke-linejoin="miter" stroke-miterlimit="8" stroke-opacity="1" fill="#70AD47" fill-opacity="1"/><text fill="#FFFFFF" fill-opacity="1" font-family="Times New Roman,Times New Roman_MSFontService,sans-serif" font-style="normal" font-variant="normal" font-weight="400" font-stretch="normal" font-size="83" text-anchor="start" direction="ltr" writing-mode="lr-tb" unicode-bidi="normal" text-decoration="none" transform="matrix(1 0 0 1 1316.91 2114)">conv</text><rect x="1093.5" y="2130.5" width="554" height="102" stroke="#000000" stroke-width="4.58333" stroke-linecap="butt" stroke-linejoin="miter" stroke-miterlimit="8" stroke-opacity="1" fill="#FFFFFF" fill-opacity="1"/><text fill="#000000" fill-opacity="1" font-family="Times New Roman,Times New Roman_MSFontService,sans-serif" font-style="normal" font-variant="normal" font-weight="400" font-stretch="normal" font-size="83" text-anchor="start" direction="ltr" writing-mode="lr-tb" unicode-bidi="normal" text-decoration="none" transform="matrix(1 0 0 1 1160.95 2212)">Pixel shuffle</text><path d="M1400.94 1900.5 1400.94 2010.26 1394.06 2010.26 1394.06 1900.5ZM1411.25 2005.68 1397.5 2033.18 1383.75 2005.68Z" fill="#000000" fill-rule="nonzero" fill-opacity="1"/><rect x="1558.5" y="347.5" width="123" height="102" stroke="#507E32" stroke-width="4.58333" stroke-linecap="butt" stroke-linejoin="miter" stroke-miterlimit="8" stroke-dasharray="18.3333 13.75" stroke-opacity="1" fill="#E2F0D9" fill-opacity="1"/><rect x="1879.5" y="1620.5" width="160" height="101" stroke="#507E32" stroke-width="4.58333" stroke-linecap="butt" stroke-linejoin="miter" stroke-miterlimit="8" stroke-dasharray="18.3333 13.75" stroke-opacity="1" fill="#E2F0D9" fill-opacity="1"/><rect x="1558.5" y="2032.5" width="160" height="102" stroke="#507E32" stroke-width="4.58333" stroke-linecap="butt" stroke-linejoin="miter" stroke-miterlimit="8" stroke-dasharray="18.3333 13.75" stroke-opacity="1" fill="#E2F0D9" fill-opacity="1"/><rect x="1879.5" y="1520.5" width="160" height="102" stroke="#000000" stroke-width="4.58333" stroke-linecap="butt" stroke-linejoin="miter" stroke-miterlimit="8" stroke-dasharray="18.3333 13.75" stroke-opacity="1" fill="#FFFFFF" fill-opacity="1"/><rect x="1879.5" y="615.5" width="160" height="102" stroke="#2F528F" stroke-width="4.58333" stroke-linecap="butt" stroke-linejoin="miter" stroke-miterlimit="8" stroke-dasharray="18.3333 13.75" stroke-opacity="1" fill="#DAE3F3" fill-opacity="1"/><rect x="2200.5" y="840.5" width="161" height="102" stroke="#2F528F" stroke-width="4.58333" stroke-linecap="butt" stroke-linejoin="miter" stroke-miterlimit="8" stroke-dasharray="18.3333 13.75" stroke-opacity="1" fill="#DAE3F3" fill-opacity="1"/><rect x="2521.5" y="1068.5" width="161" height="102" stroke="#2F528F" stroke-width="4.58333" stroke-linecap="butt" stroke-linejoin="miter" stroke-miterlimit="8" stroke-dasharray="18.3333 13.75" stroke-opacity="1" fill="#DAE3F3" fill-opacity="1"/><rect x="2842.5" y="1293.5" width="161" height="102" stroke="#2F528F" stroke-width="4.58333" stroke-linecap="butt" stroke-linejoin="miter" stroke-miterlimit="8" stroke-dasharray="18.3333 13.75" stroke-opacity="1" fill="#DAE3F3" fill-opacity="1"/></g></svg>